<svg viewBox="0 0 58 58" fill="none">
<path d="M12.0423 17.3927C14.9626 17.3927 17.33 15.0253 17.33 12.105C17.33 9.18475 14.9626 6.81738 12.0423 6.81738C9.12201 6.81738 6.75464 9.18475 6.75464 12.105C6.75464 15.0253 9.12201 17.3927 12.0423 17.3927Z" fill="currentColor" fill-opacity="0.4"/>
<path d="M22.3227 21.3996V50.7355H31.4311V36.2282C31.4311 32.4002 32.1512 28.6931 36.8976 28.6931C41.5787 28.6931 41.6367 33.0696 41.6367 36.4699V50.7379H50.7499V34.6501C50.7499 26.7476 49.0486 20.6746 39.8121 20.6746C35.3775 20.6746 32.405 23.1081 31.1894 25.4112H31.0662V21.3996H22.3227ZM7.47949 21.3996H16.6024V50.7355H7.47949V21.3996Z" fill="currentColor" fill-opacity="0.4"/>
</svg>
