<svg viewBox="0 0 48 48" fill="none">
<path d="M33.609 16.551C34.8019 16.551 35.769 15.5839 35.769 14.391C35.769 13.198 34.8019 12.231 33.609 12.231C32.416 12.231 31.449 13.198 31.449 14.391C31.449 15.5839 32.416 16.551 33.609 16.551Z" fill="currentColor" fill-opacity="0.4"/>
<path d="M24.0001 14.757C22.172 14.757 20.385 15.299 18.8649 16.3147C17.3449 17.3303 16.1602 18.7739 15.4607 20.4628C14.7611 22.1518 14.578 24.0102 14.9347 25.8032C15.2913 27.5961 16.1716 29.2431 17.4643 30.5357C18.757 31.8284 20.4039 32.7087 22.1969 33.0654C23.9898 33.422 25.8483 33.239 27.5372 32.5394C29.2262 31.8398 30.6697 30.6551 31.6854 29.1351C32.701 27.6151 33.2431 25.8281 33.2431 24C33.2431 21.5486 32.2693 19.1976 30.5359 17.4642C28.8025 15.7308 26.4515 14.757 24.0001 14.757ZM24.0001 30C22.8134 30 21.6534 29.6481 20.6667 28.9888C19.68 28.3295 18.9109 27.3924 18.4568 26.2961C18.0027 25.1997 17.8839 23.9933 18.1154 22.8294C18.3469 21.6655 18.9183 20.5964 19.7574 19.7573C20.5966 18.9182 21.6657 18.3468 22.8295 18.1152C23.9934 17.8837 25.1998 18.0026 26.2962 18.4567C27.3925 18.9108 28.3296 19.6798 28.9889 20.6665C29.6482 21.6532 30.0001 22.8133 30.0001 24C30.0001 25.5913 29.3679 27.1174 28.2427 28.2426C27.1175 29.3678 25.5914 30 24.0001 30Z" fill="currentColor" fill-opacity="0.4"/>
<path d="M24 9.243C28.806 9.243 29.376 9.261 31.2735 9.348C32.4148 9.36155 33.5452 9.5711 34.6155 9.9675C35.392 10.267 36.0972 10.7258 36.6857 11.3143C37.2742 11.9028 37.733 12.608 38.0325 13.3845C38.4289 14.4548 38.6385 15.5852 38.652 16.7265C38.739 18.624 38.757 19.194 38.757 24.0015C38.757 28.809 38.739 29.376 38.652 31.2735C38.6385 32.4148 38.4289 33.5452 38.0325 34.6155C37.733 35.392 37.2742 36.0972 36.6857 36.6857C36.0972 37.2742 35.392 37.733 34.6155 38.0325C33.5452 38.4289 32.4148 38.6385 31.2735 38.652C29.376 38.739 28.806 38.757 24 38.757C19.194 38.757 18.624 38.739 16.7265 38.652C15.5852 38.6385 14.4548 38.4289 13.3845 38.0325C12.608 37.733 11.9028 37.2742 11.3143 36.6857C10.7258 36.0972 10.267 35.392 9.9675 34.6155C9.5711 33.5452 9.36155 32.4148 9.348 31.2735C9.261 29.376 9.243 28.806 9.243 24C9.243 19.194 9.261 18.624 9.348 16.7265C9.36155 15.5852 9.5711 14.4548 9.9675 13.3845C10.267 12.608 10.7258 11.9028 11.3143 11.3143C11.9028 10.7258 12.608 10.267 13.3845 9.9675C14.4548 9.5711 15.5852 9.36155 16.7265 9.348C18.624 9.261 19.194 9.243 24 9.243ZM24 6C19.1115 6 18.498 6.021 16.578 6.108C15.0852 6.13814 13.6082 6.42115 12.21 6.945C11.0141 7.40745 9.92799 8.11467 9.02133 9.02133C8.11467 9.92799 7.40745 11.0141 6.945 12.21C6.42099 13.6087 6.13798 15.0862 6.108 16.5795C6.021 18.4995 6 19.11 6 24C6 28.89 6.021 29.502 6.108 31.422C6.13814 32.9148 6.42115 34.3918 6.945 35.79C7.40745 36.9859 8.11467 38.072 9.02133 38.9787C9.92799 39.8853 11.0141 40.5926 12.21 41.055C13.6087 41.579 15.0862 41.862 16.5795 41.892C18.4995 41.979 19.1115 42 24 42C28.8885 42 29.502 41.979 31.422 41.892C32.9153 41.862 34.3928 41.579 35.7915 41.055C36.9874 40.5926 38.0735 39.8853 38.9802 38.9787C39.8868 38.072 40.5941 36.9859 41.0565 35.79C41.58 34.3912 41.8625 32.9138 41.892 31.4205C41.979 29.5005 42 28.89 42 24C42 19.11 41.979 18.498 41.892 16.578C41.8619 15.0852 41.5788 13.6082 41.055 12.21C40.5926 11.0141 39.8853 9.92799 38.9787 9.02133C38.072 8.11467 36.9859 7.40745 35.79 6.945C34.3912 6.4215 32.9138 6.13899 31.4205 6.1095C29.5005 6.0195 28.89 6 24 6Z" fill="currentColor" fill-opacity="0.4"/>
</svg>
