<svg viewBox="0 0 498 3388" fill="none" xmlns="http://www.w3.org/2000/svg">
<path d="M9 0.363287L498 0.363287V121.113L280.5 199.863C266 204.863 251 209.613 235.5 214.113C220.5 218.613 205.5 223.363 190.5 228.363V231.363C205.5 236.363 220.5 240.863 235.5 244.863C251 249.363 266 254.113 280.5 259.113L498 336.363L498 456.363L9 456.363V355.863L188.25 355.863C200.25 355.863 213.5 356.363 228 357.363C242.5 358.363 257 359.613 271.5 361.113C286.5 362.613 301 364.113 315 365.613C329.5 367.113 342.75 368.613 354.75 370.113V367.113L238.5 327.363L51.75 257.613V196.863L238.5 127.113L354.75 88.1133V85.1133C342.75 86.6133 329.5 88.1133 315 89.6133C301 91.1133 286.5 92.6133 271.5 94.1133C257 95.6133 242.5 96.8633 228 97.8633C213.5 98.8633 200.25 99.3633 188.25 99.3633L9 99.3633V0.363287ZM-7.8231e-08 726.902C-7.8231e-08 663.402 18.75 614.902 56.25 581.402C93.75 547.902 153.5 531.152 235.5 531.152L498 531.152V642.152L224.25 642.152C176.25 642.152 142.75 649.402 123.75 663.902C104.75 678.402 95.25 699.402 95.25 726.902C95.25 754.402 104.75 775.652 123.75 790.652C142.75 805.652 176.25 813.152 224.25 813.152L498 813.152L498 919.652L235.5 919.652C153.5 919.652 93.75 903.152 56.25 870.152C18.75 837.652 -7.8231e-08 789.902 -7.8231e-08 726.902ZM9 964.682H75.75L405 1180.68L405 984.932H498L498 1316.43H431.25L102 1100.43V1318.68H9V964.682ZM256.5 1478.44L211.5 1466.44V1570.69L256.5 1559.44C281 1552.44 307 1545.69 334.5 1539.19C362 1532.69 388.5 1526.19 414 1519.69V1516.69C388 1510.69 361.25 1504.44 333.75 1497.94C306.75 1491.94 281 1485.44 256.5 1478.44ZM9 1301.44L498 1454.44L498 1587.19L9 1740.19V1623.19L125.25 1593.19V1443.94L9 1413.94V1301.44ZM9 1756.13H498V1876.88L280.5 1955.63C266 1960.63 251 1965.38 235.5 1969.88C220.5 1974.38 205.5 1979.13 190.5 1984.13V1987.13C205.5 1992.13 220.5 1996.63 235.5 2000.63C251 2005.13 266 2009.88 280.5 2014.88L498 2092.13L498 2212.13H9V2111.62H188.25C200.25 2111.62 213.5 2112.13 228 2113.13C242.5 2114.13 257 2115.38 271.5 2116.88C286.5 2118.38 301 2119.88 315 2121.38C329.5 2122.88 342.75 2124.38 354.75 2125.88V2122.88L238.5 2083.13L51.75 2013.38V1952.63L238.5 1882.88L354.75 1843.88V1840.88C342.75 1842.38 329.5 1843.88 315 1845.38C301 1846.88 286.5 1848.38 271.5 1849.88C257 1851.38 242.5 1852.63 228 1853.63C213.5 1854.63 200.25 1855.13 188.25 1855.13H9V1756.13ZM9 2289.91H498L498 2410.66L280.5 2489.41C266 2494.41 251 2499.16 235.5 2503.66C220.5 2508.16 205.5 2512.91 190.5 2517.91V2520.91C205.5 2525.91 220.5 2530.41 235.5 2534.41C251 2538.91 266 2543.66 280.5 2548.66L498 2625.91V2745.91H9V2645.41H188.25C200.25 2645.41 213.5 2645.91 228 2646.91C242.5 2647.91 257 2649.16 271.5 2650.66C286.5 2652.16 301 2653.66 315 2655.16C329.5 2656.66 342.75 2658.16 354.75 2659.66V2656.66L238.5 2616.91L51.75 2547.16V2486.41L238.5 2416.66L354.75 2377.66V2374.66C342.75 2376.16 329.5 2377.66 315 2379.16C301 2380.66 286.5 2382.16 271.5 2383.66C257 2385.16 242.5 2386.41 228 2387.41C213.5 2388.41 200.25 2388.91 188.25 2388.91H9V2289.91ZM9 2804.95H102V2858.95H405V2804.95H498L498 3023.95H405V2969.2H102V3023.95H9L9 2804.95ZM9 3083.57H498V3193.82H102V3387.32H9V3083.57Z" fill="#ededed" fill-opacity="0.05"/>
</svg>
