<svg viewBox="0 0 43 43" fill="none">
<path d="M40.3125 10.1694C39.7976 10.9408 39.2128 11.6632 38.5656 12.3275C37.9152 12.996 37.2084 13.6075 36.4533 14.155C36.4775 14.4922 36.49 14.8301 36.4909 15.1682C36.4909 16.7108 36.3269 18.2346 35.9964 19.7423C35.667 21.2446 35.1862 22.7096 34.5612 24.1149C33.6957 26.0948 32.5518 27.9409 31.1642 29.5974C29.8344 31.1814 28.2766 32.559 26.5418 33.6851C24.8008 34.8085 22.9036 35.6688 20.9114 36.2382C18.8327 36.8332 16.6801 37.1309 14.5179 37.1224C12.4327 37.125 10.3577 36.8309 8.35544 36.2489C6.34866 35.6647 4.43886 34.7881 2.6875 33.6474C4.70896 33.8918 6.75878 33.7351 8.71962 33.1864C10.6805 32.6376 12.5138 31.7075 14.1147 30.4493C12.9171 30.4326 11.7401 30.1344 10.679 29.5788C9.61782 29.0233 8.7022 28.2259 8.00606 27.2512C7.53126 26.5961 7.16217 25.8706 6.91225 25.1012C7.15681 25.1388 7.39869 25.1711 7.63788 25.1952C8.56033 25.2855 9.49153 25.2044 10.3845 24.9561C9.50369 24.7824 8.66094 24.4529 7.89587 23.9832C7.15454 23.5276 6.49349 22.9529 5.93938 22.282C4.8018 20.9046 4.1836 19.1718 4.1925 17.3854V17.2967C5.27287 17.9067 6.44194 18.2319 7.70237 18.2696C6.65138 17.5537 5.78849 16.5949 5.18687 15.4746C4.89226 14.922 4.66403 14.3365 4.50694 13.7304C4.18696 12.4476 4.19343 11.1051 4.52575 9.82543C4.69506 9.17237 4.95844 8.55156 5.31588 7.963C6.29413 9.17506 7.38525 10.2635 8.58388 11.2229C10.9661 13.1334 13.7188 14.529 16.6679 15.3214C18.1564 15.7203 19.6837 15.9572 21.2232 16.0282C21.1489 15.7415 21.0968 15.4495 21.0673 15.1547C21.037 14.8592 21.0218 14.5623 21.0216 14.2652C21.0216 13.1982 21.2232 12.1958 21.629 11.2606C22.4158 9.41254 23.8875 7.94086 25.7355 7.15406C26.6839 6.74813 27.7058 6.54228 28.7374 6.54937C29.7955 6.54422 30.8432 6.75868 31.8142 7.17918C32.7852 7.59967 33.6583 8.21706 34.3785 8.99231C36.1027 8.65191 37.7554 8.01736 39.2644 7.11643C38.7049 8.9073 37.5 10.4264 35.8835 11.3788C37.412 11.2012 38.9051 10.7944 40.3125 10.1721V10.1694Z" fill="currentColor" fill-opacity="0.4"/>
</svg>
